<svg xmlns="http://www.w3.org/2000/svg" width="24" height="24" fill="none"><path fill="#fff" d="M12 2.25A9.75 9.75 0 1 0 21.75 12 9.76 9.76 0 0 0 12 2.25Zm8.215 9h-3.734c-.132-2.668-.963-5.2-2.355-7.219a8.268 8.268 0 0 1 6.09 7.219ZM12 20.24c-1.756-1.9-2.82-4.594-2.978-7.49h5.956c-.157 2.894-1.222 5.59-2.978 7.49Zm-2.978-8.99C9.179 8.356 10.24 5.66 12 3.76c1.756 1.9 2.82 4.594 2.978 7.49H9.022Zm.852-7.219C8.482 6.05 7.65 8.581 7.519 11.25H3.785a8.269 8.269 0 0 1 6.089-7.219Zm-6.09 8.719H7.52c.132 2.668.963 5.2 2.355 7.219a8.27 8.27 0 0 1-6.09-7.219Zm10.342 7.219c1.392-2.021 2.223-4.554 2.355-7.219h3.734a8.269 8.269 0 0 1-6.089 7.219Z"/></svg>