<svg xmlns="http://www.w3.org/2000/svg" width="252" height="21" fill="none"><path fill="#fff" d="M46.639 1.39h2.616v7.492c0 4.842-2.826 7.134-7.934 7.134h-7.18c-5.11 0-7.935-2.295-7.935-7.134V1.39h2.616v7.492c0 3.326 1.948 4.82 5.318 4.82h7.18c3.37 0 5.319-1.494 5.319-4.82V1.39Zm18.837 9.302L75.524 1.39h2.492v14.563h-2.595V5.221a.248.248 0 0 0-.418-.183l-8.962 8.326h-1.15L55.93 5.04a.248.248 0 0 0-.418.183v10.73h-2.595V1.39h2.492l10.069 9.302h-.003ZM8.844 7.578h10.834a.248.248 0 0 0 .247-.248V1.39h2.616v14.563h-2.616v-5.852c0-.139-.11-.25-.249-.25H8.844V7.578ZM0 16 5.486 1.39h2.328L2.31 16H0ZM127.427 1.39h2.595v14.688h-2.554L110.79 4.741a.246.246 0 0 0-.382.206v11.008h-2.596V1.39h2.554l16.669 11.226a.251.251 0 0 0 .392-.211V1.39Zm-22.201 14.563h-2.847l-2.448-3.305H86.116l-2.47 3.305h-2.848L91.766 1.39h2.492l10.968 14.563ZM93.022 3.494l-5.38 7.07h10.76l-5.38-7.07Zm55.644 11.576h1.383v1.015h-1.537c-.834 0-1.559-.199-2.086-.839l-1.076-1.28c-1.251 1.479-2.744 2.251-4.457 2.251-2.503 0-4.501-1.39-4.501-3.929 0-1.744 1.075-3.333 3.754-4.481-1.185-1.457-1.668-2.34-1.668-3.753 0-2.03 1.69-3.554 3.974-3.554 1.932 0 3.359 1.369 3.359 3.2 0 1.723-1.054 3.136-3.996 4.372l.132.154 3.425 4.04 2.986-4.525h1.186l-3.491 5.342 1.098 1.28c.461.574.9.707 1.515.707Zm-6.302-13.6c-1.603 0-2.723 1.082-2.723 2.561 0 1.214.461 1.987 1.581 3.333 2.416-1.06 3.448-2.14 3.448-3.642 0-1.302-.945-2.252-2.306-2.252Zm-1.449 13.731c1.449 0 2.744-.706 3.776-2.009l-3.644-4.327-.33-.375c-2.283 1.104-3.184 2.097-3.184 3.709 0 1.898 1.45 3.002 3.382 3.002Zm19.254 1.016c-4.304 0-7.048-3.178-7.048-7.858 0-4.636 2.81-7.859 7.136-7.859 3.228 0 5.555 1.788 6.236 4.879h-1.252c-.68-2.429-2.481-3.775-5.05-3.775-3.557 0-5.841 2.803-5.841 6.755 0 3.951 2.24 6.755 5.797 6.755 2.613 0 4.392-1.325 5.05-3.797h1.252c-.659 3.112-2.986 4.9-6.28 4.9Zm14.585 0c-3.14 0-5.336-2.34-5.336-5.74 0-3.377 2.196-5.717 5.336-5.717s5.358 2.34 5.358 5.718c0 3.4-2.218 5.74-5.358 5.74Zm0-1.015c2.481 0 4.194-1.943 4.194-4.724 0-2.76-1.713-4.724-4.194-4.724s-4.194 1.965-4.194 4.724c0 2.781 1.713 4.724 4.194 4.724ZM195.863 4.76c2.327 0 4.106 1.457 4.106 4.835v6.49h-1.142V9.639c0-2.539-1.164-3.841-3.096-3.841-2.086 0-3.404 1.634-3.469 4.194v6.093h-1.12V9.749c0-2.582-1.208-3.951-3.14-3.951-2.13 0-3.448 1.854-3.448 4.592v5.695h-1.119V4.893h.966l.175 2.384c.571-1.39 1.713-2.517 3.623-2.517 1.757 0 3.14.95 3.667 2.804.637-1.656 1.955-2.804 3.997-2.804Zm13.069 0c3.052 0 5.248 2.208 5.248 5.718 0 3.4-2.196 5.74-5.248 5.74-2.108 0-3.623-1.082-4.26-2.716V20.5h-1.12V4.893h.966l.176 2.56c.703-1.567 2.152-2.693 4.238-2.693Zm-.088 10.442c2.481 0 4.194-1.943 4.194-4.724 0-2.76-1.713-4.724-4.194-4.724s-4.194 1.965-4.194 4.702c0 2.803 1.713 4.746 4.194 4.746Zm18.443-.155h.418v1.038h-.659c-1.318 0-1.866-.574-1.823-1.899v-.397c-.68 1.39-2.02 2.428-4.281 2.428-2.372 0-3.931-1.214-3.931-3.2 0-2.098 1.537-3.334 4.392-3.334h3.777v-.971c0-1.854-1.186-2.958-3.272-2.958-1.888 0-3.074.905-3.36 2.274h-1.119c.285-2.031 1.976-3.268 4.523-3.268 2.788 0 4.347 1.435 4.347 3.996v5.21c0 .86.33 1.082.988 1.082Zm-2.107-3.487v-.905h-3.865c-2.064 0-3.162.816-3.162 2.295 0 1.391 1.098 2.296 2.877 2.296 2.634 0 4.15-1.545 4.15-3.686Zm10.258-6.8c2.525 0 4.392 1.524 4.392 5.056v6.269h-1.12V9.86c0-2.65-1.296-4.062-3.448-4.062-2.371 0-3.842 1.854-3.842 4.768v5.519h-1.12V4.893h.966l.176 2.384c.637-1.457 1.954-2.517 3.996-2.517Zm10.941 11.325-4.457-11.192h1.207l3.865 9.735 3.798-9.735H252l-5.336 13.267c-.702 1.766-1.054 2.34-2.547 2.34h-1.712v-1.038h1.405c1.142 0 1.339-.33 1.844-1.567l.725-1.81Z"/></svg>