<svg xmlns="http://www.w3.org/2000/svg" width="891" height="151" fill="none"><g clip-path="url(#a)"><path fill="#fff" d="M834.72 46.57c-16.21 0-23.71 13.3-23.71 40.69 0 27.39 8.11 40.5 23.71 40.5 16.41 0 23.91-13.3 23.91-40.5s-7.5-40.69-23.91-40.69Zm-.61 104.28c-38.9 0-54.51-28.75-54.51-63 0-37.95 16.62-64.37 56.53-64.37s53.89 29.93 53.89 62.6c0 38.35-16.21 64.77-55.92 64.77h.01Zm-73.14-24.07c4.05 0 9.92-.59 12.56-1.56v23.29c-4.66 1.38-13.77 2.35-20.86 2.35-21.88 0-38.7-9.2-38.7-39.72V7.83L744.36 0v25.83h32.43l-4.06 24.45h-28.37v60.26c0 11.74 6.07 16.24 16.62 16.24h-.01ZM693.49 25.83V148.5h-29.98v-26.8h-.61c-4.46 15.07-17.42 29.15-34.03 29.15-24.11 0-35.46-13.88-35.46-40.69V25.83h30.39v77.67c0 14.08 4.05 24.27 19.04 24.27 14.99 0 20.26-13.5 20.26-27.79V25.83h30.39ZM522.3 46.56c-16.21 0-23.71 13.3-23.71 40.69 0 27.39 8.11 40.5 23.71 40.5 16.41 0 23.91-13.3 23.91-40.5s-7.5-40.69-23.91-40.69Zm-.61 104.28c-38.9 0-54.5-28.76-54.5-63 0-37.96 16.62-64.37 56.53-64.37s53.89 29.93 53.89 62.6c0 38.35-16.21 64.76-55.92 64.76v.01ZM381.7 86.86c0 26.02 8.92 41.28 24.72 41.28 14.38 0 19.45-10.95 19.45-25.63h28.77c0 31.89-18.44 48.32-48.01 48.32-36.07 0-56.32-22.1-56.32-63.98 0-32.28 15.6-63.39 56.32-63.39 29.98 0 48.01 17.8 48.01 47.73h-28.77c0-12.52-4.46-24.84-19.86-24.84-19.85 0-24.31 21.91-24.31 40.5m-115.08 26.43c0 9 6.07 15.26 16.42 15.26 13.78 0 22.08-10.76 22.08-29.93v-9.39l-19.46 4.5c-12.36 2.93-19.04 9.78-19.04 19.56Zm68.48 35.21h-29.39v-26.81h-.61c-3.65 18.39-16.21 29.15-32.81 29.15-24.11 0-36.06-16.63-36.06-35.6 0-30.9 31.2-39.14 68.88-45.4v-4.88c0-12.72-5.87-18.98-17.83-18.98-12.97 0-19.45 6.85-19.45 19.57h-28.37c0-26.61 16.42-42.07 48.42-42.07 34.65 0 47.21 17.99 47.21 42.85v82.17h.01Zm-113.86 0h-30.39V70.23c0-10.36-1.82-23.86-17.83-23.86-14.38 0-23.5 10.76-23.5 28.76v73.37h-30.39V25.83h29.98v27.39h.61c4.25-17.21 18.64-29.74 38.09-29.74 23.5 0 33.43 18.19 33.43 39.32v85.69ZM30.39 113.28c0 9 6.07 15.26 16.41 15.26 13.77 0 22.08-10.76 22.08-29.93v-9.39l-19.45 4.5c-12.36 2.93-19.04 9.78-19.04 19.56Zm68.48 35.22H69.5v-26.8h-.61c-3.65 18.39-16.21 29.15-32.81 29.15C11.96 150.84 0 134.2 0 115.24c0-30.9 31.2-39.13 68.89-45.39v-4.88c0-12.72-5.87-18.98-17.83-18.98-12.97 0-19.45 6.85-19.45 19.57H3.24c0-26.61 16.41-42.07 48.42-42.07 34.64 0 47.21 18 47.21 42.85v82.17-.01Z"/></g><defs><clipPath id="a"><path fill="#fff" d="M0 0h890.02v150.85H0z"/></clipPath></defs></svg>