<?xml version="1.0" encoding="UTF-8"?>
<svg id="Camada_1" data-name="Camada 1" xmlns="http://www.w3.org/2000/svg" viewBox="0 0 62.91 91.76">
  <defs>
    <style>
      .cls-1 {
        fill: #ffbd28;
      }
    </style>
  </defs>
  <path class="cls-1" d="M60.71,11.41c-2,.82-5.6.37-9.09-.07-3.67-.46-7.15-.9-9.17.02-9.21,4.19-8.41,20.37-7.7,34.65.11,2.21.22,4.37.29,6.44l.03.89c.55,16.81.74,22.47-10.31,30.62,0,0,0,0,0,0h0s.57.77.57.77c.01,0,.03,0,.04-.01,0,0,0,0,0,0,.07-.06-.15.03-.03.03,1.67-.97,4.5-.52,7.16.12,1.69.41,3.41.82,4.97.82,1.2,0,2.3-.24,3.21-.92,10.57-7.8,10.59-12.94,10.62-25.36,0-2.09.01-4.39.07-6.96.07-3.09-.05-6.29-.16-9.39-.42-11.62-.77-22.72,7.86-29.36l.08-.3c-.05-.22.05-.01.05-.02.03-.03.05-.04.07-.07.03-.03.06-.09.09-.11.02-.06.07.13.12.08.03-.02.05-.04.08-.06.02-.09.04-.17.07-.26.04-.13.12-.23.23-.3.02-.01.04-.01.06-.02,0,0,0-.01.01-.02.07-.07.16-.12.23-.19.08-.07.14-.15.21-.23.1-.1.2-.19.32-.27.06-.05.14-.08.21-.12l-.19-.37ZM50.21,43.08c.11,3.08.23,6.27.16,9.33h0c-.06,2.58-.06,4.89-.07,6.98-.03,12.42-.05,17.06-10.21,24.56-1.74,1.28-4.6.6-7.36-.07-1.67-.4-3.36-.81-4.89-.81-.11,0-.23,0-.34,0,9.3-7.67,9.09-14.17,8.57-29.79l-.03-.89c-.07-2.07-.18-4.24-.29-6.46-.69-13.96-1.48-29.78,7.12-33.69,1.76-.8,5.25-.36,8.63.07,2.47.31,4.99.63,7.07.51-9.21,6.97-8.78,18.79-8.36,30.25Z"/>
  <path class="cls-1" d="M14.5,82.29c-1.68,0-3.53-.42-5.35-.83-2.94-.67-6.5-2.16-8.32-.89,0,0-.28.15-.29.15l.23-.17h0c11.97-8.34,11.77-14.16,11.16-31.44l-.03-.88c-.12-3.4-.45-6.71-.77-9.9-1.17-11.69-2.18-21.78,7.78-29.91,2.05-1.67,6.11-1.47,10.4-1.26,2.93.14,5.97.29,7.97-.27l4.42-1.24-4.05,2.16c-9.73,5.2-9.12,17.03-8.47,29.56.19,3.6.38,7.33.3,10.85-.06,2.63-.07,5.02-.07,7.13-.04,12.77-.05,18.06-11.49,26.02-.98.68-2.16.92-3.43.92ZM4.09,79.66c1.65,0,3.48.42,5.27.82,3,.68,6.09,1.38,8,.06,11.01-7.66,11.02-12.44,11.06-25.2,0-2.12.01-4.51.07-7.15.08-3.48-.11-7.19-.3-10.77-.59-11.4-1.2-23.15,6.94-29.19-1.79.12-3.84.02-5.85-.08-3.92-.19-7.97-.39-9.72,1.04-9.55,7.78-8.56,17.63-7.42,29.03.32,3.21.65,6.53.77,9.96l.03.88c.56,16.06.8,22.74-9.28,30.6.14,0,.29,0,.43,0Z"/>
  <polygon class="cls-1" points="59.06 13.69 62.41 10.59 58.96 12.25 59.06 13.69"/>
  <polygon class="cls-1" points="25.54 84.63 21.85 86.45 24.75 83.95 25.54 84.63"/>
</svg>