<?xml version="1.0" encoding="UTF-8"?>
<svg width="221px" height="63px" viewBox="0 0 221 63" version="1.1" xmlns="http://www.w3.org/2000/svg" xmlns:xlink="http://www.w3.org/1999/xlink">
    <title>Group 2</title>
    <g id="Page-1" stroke="none" stroke-width="1" fill="none" fill-rule="evenodd">
        <g id="plenum" transform="translate(-124.000000, -39.000000)">
            <g id="Group-2" transform="translate(124.000000, 39.351562)">
                <g id="Group-12" transform="translate(0.000000, 0.648438)">
                    <path d="M34.7049218,30.7070982 C35.3255489,12.1242238 55.055103,14.1269556 58.7496598,19.8346048 C60.3267829,22.2763166 61.5461327,25.5996311 61.5461327,30.4429817 C61.5461327,32.7571889 61.2431206,34.8546384 60.647136,36.7298658 C60.0529768,38.6060038 59.1722339,40.2198469 58.0103834,41.5723056 C56.851271,42.9202107 55.4201778,43.9566403 53.7143659,44.6770409 C52.0094666,45.3928878 50.0526658,45.7526327 47.8375745,45.7526327 C46.6392165,45.7526327 45.6033168,45.6387894 44.7243993,45.4111027 C43.8902034,45.1961665 43.0560075,44.8928879 42.2172482,44.5358752 C42.17709,44.5158388 42.1296302,44.5103743 42.0858213,44.4876056 L42.0858213,44.4876056 L42.0858213,50.5431601 C42.0073302,51.9657463 41.862213,53.2726677 41.5509867,54.4803178 C40.9312723,56.9056361 39.9510465,60.0358723 37.1490975,60.8664732 C36.3113138,61.1127831 35.3045289,60.9775193 34.2797133,60.788572 L33.7198421,60.6821565 C32.2269235,60.3946956 30.7539314,60.1197866 29.7654599,60.8664732 C33.021927,58.4129218 34.2659194,55.4730316 34.7049218,51.7180232 C35.0106719,49.1032696 34.9349189,49.3828688 34.818095,45.8227602 C34.7925397,44.9639261 34.7496435,44.0577332 34.7049218,43.1278609 L34.7049218,43.1278609 Z M72.7145005,1 L72.7145005,35.2304125 C72.7145005,37.8979894 73.576077,39.2304117 75.2946666,39.2304117 C75.7893429,39.2304117 76.2575513,39.1876066 76.6974664,39.096532 C77.1364689,39.0063681 77.6512243,38.8615593 78.2535977,38.6493554 L79.1443802,44.3852377 C78.4416112,44.7021775 77.4486078,45.0090992 76.1635446,45.3060026 C74.8812194,45.602906 73.5559979,45.7531792 72.1851421,45.7531792 C69.9709635,45.7531792 68.2751911,45.2595545 67.0969123,44.2777696 C65.9186334,43.2968955 65.330863,41.6830524 65.330863,39.441705 L65.330863,1 L72.7145005,1 Z M152.90701,17.285425 L152.90701,32.5959868 C152.90701,34.8783178 153.218237,36.5449842 153.851641,37.5950751 C154.485959,38.6497197 155.702571,39.1752205 157.49235,39.1752205 C159.042092,39.1752205 160.341758,38.7735812 161.39865,37.9666597 C162.451891,37.1597382 163.220373,36.1442557 163.717788,34.913837 L163.717788,17.285425 L171.098687,17.285425 L171.098687,36.4921609 C171.098687,37.9666597 171.179916,39.4411585 171.33416,40.9111036 C171.496619,42.3846916 171.714751,43.7216677 171.994946,44.9120136 L166.559895,44.9120136 L165.136103,40.5987175 L164.56111,40.5987175 C163.644773,42.0713948 162.344194,43.2917953 160.656635,44.2553652 C158.969077,45.2189352 157.036919,45.7016309 154.862899,45.7016309 C153.3451,45.7016309 152.010752,45.5094634 150.850727,45.1196638 C149.686138,44.7362395 148.715039,44.0950738 147.920089,43.2016314 C147.129702,42.3063674 146.536455,41.1196646 146.131222,39.6506302 C145.727815,38.1761314 145.52246,36.3537274 145.52246,34.1761322 L145.52246,17.285425 L152.90701,17.285425 Z M95.6472208,16.4960809 C97.1275991,16.4960809 98.5897236,16.6827839 100.029031,17.0479933 C101.4656,17.419578 102.750663,18.0315997 103.88057,18.893166 C105.000437,19.7529109 105.905822,20.9086483 106.590337,22.3631107 C107.278503,23.8212161 107.622586,25.6172085 107.622586,27.7565523 C107.622586,28.4942571 107.576039,29.3011786 107.487509,30.1782276 C107.400804,31.0552767 107.249297,31.9660233 107.043943,32.9168428 L88.5875871,32.9168428 C88.7555215,35.299356 89.4573778,37.0616508 90.66395,38.2046378 C91.8823871,39.3439818 93.8556163,39.911377 96.5982406,39.911377 C98.2511167,39.911377 99.7351457,39.6736721 101.055804,39.2037269 C102.375549,38.7283171 103.384068,38.2465321 104.08775,37.754729 L106.617718,42.3849649 C105.423011,43.2966223 103.796603,44.0807751 101.739406,44.7255837 C99.6867733,45.3758568 97.4798962,45.7009934 95.1233385,45.7009934 C90.3764536,45.7009934 86.8954655,44.4040902 84.6831123,41.8084622 C82.4689337,39.2128343 81.3609318,35.6499935 81.3609318,31.1272256 C81.3609318,26.3203049 82.6076622,22.6809613 85.1056864,20.2055519 C87.5973218,17.7328748 91.1148173,16.4960809 95.6472208,16.4960809 Z M131.192545,16.4958076 C132.664709,16.4958076 133.978065,16.6825107 135.120749,17.0477201 C136.263434,17.4193047 137.211715,18.0531844 137.968333,18.9438946 C138.724038,19.8346048 139.306332,21.0422549 139.707001,22.5468083 C140.112234,24.0568263 140.310288,25.948447 140.310288,28.2307781 L140.310288,44.9120136 L132.935777,44.9120136 L132.935777,29.7562787 C132.935777,27.3710333 132.563401,25.6524544 131.823211,24.6023635 C131.08576,23.5477189 129.788832,23.0222181 127.922387,23.0222181 C126.339788,23.0222181 124.997226,23.4520905 123.887398,24.3118353 C122.782134,25.1715801 122.01639,26.2681191 121.593816,27.5996307 C121.593816,30.4766793 121.601117,33.3619247 121.622109,36.254456 C121.634887,39.1524518 121.647664,42.0376972 121.647664,44.9120136 L114.267678,44.9120136 L114.267678,17.285425 L120.067803,17.285425 L120.859103,21.2344224 L121.647664,21.2344224 C122.561264,19.9338762 123.775138,18.8218546 125.289285,17.8901607 C126.800695,16.9639314 128.770274,16.4958076 131.192545,16.4958076 Z M210.413773,16.4958076 C212.013713,16.4958076 213.375442,16.6934397 214.494397,17.0777747 C215.608787,17.4639313 216.515998,18.1269549 217.223331,19.0750421 C217.922449,20.0231294 218.42899,21.3036392 218.751169,22.918393 C219.065133,24.532236 219.222115,26.5495398 219.222115,28.9675721 L219.222115,44.9120136 L212.21633,44.9120136 L212.21633,30.1260419 C212.21633,28.9675721 212.167958,27.9511789 212.065737,27.0759514 C211.967166,26.1979916 211.763637,25.4520901 211.463363,24.8400684 C211.164002,24.2234929 210.73869,23.7681196 210.186514,23.4693947 C209.638902,23.173402 208.91149,23.0222181 208.009756,23.0222181 C206.608781,23.0222181 205.482526,23.3992672 204.631901,24.1542761 C203.777626,24.9092851 203.168864,25.948447 202.806527,27.2836016 L202.806527,44.9120136 L195.798004,44.9120136 L195.798004,30.4939835 C195.798004,27.8300496 195.526936,25.9193031 194.997578,24.7590119 C194.459092,23.6032744 193.359305,23.0222181 191.692738,23.0222181 C190.289938,23.0222181 189.168246,23.381963 188.334963,24.1023636 C187.506243,24.8218534 186.854585,25.7562795 186.3809,26.91566 L186.3809,44.9120136 L179.377853,44.9120136 L179.377853,17.285425 L184.785523,17.285425 L185.58595,21.1287758 L186.233957,21.1287758 C186.667484,20.531326 187.169462,19.9530019 187.732589,19.3910712 C188.303931,18.8300513 188.926384,18.3391588 189.612725,17.9193046 C190.299065,17.4948967 191.063897,17.1551882 191.913608,16.8901609 C192.766058,16.6296874 193.726205,16.4958076 194.794048,16.4958076 C196.562836,16.4958076 198.040476,16.9111081 199.224231,17.7326016 C200.409811,18.557738 201.354442,19.9338762 202.052648,21.8664806 C203.02466,20.1806886 204.198375,18.8646597 205.584746,17.9193046 C206.965642,16.9721281 208.577447,16.4958076 210.413773,16.4958076 Z M48.0995157,22.6533657 C46.4101321,22.6533657 45.1095532,23.0349685 44.1996043,23.7863345 C43.7149675,24.1806878 43.2969569,24.6943489 42.9391836,25.3154781 C42.6069655,25.8819625 42.3222072,26.5349679 42.0858213,27.2836016 L42.0858213,27.2836016 L42.0858213,38.019483 C42.1095511,38.0376979 42.1351064,38.0522699 42.1615743,38.0723063 C42.7447813,38.5358763 43.3836621,38.907461 44.0909945,39.1752205 C44.833009,39.4593734 45.7612117,39.5987177 46.8829039,39.5987177 C49.2750565,39.5987177 51.0511453,38.8519054 52.2102578,37.3601024 C53.3702829,35.8710317 53.9525772,33.49034 53.9525772,30.23351 C53.9525772,27.8819621 53.5044479,26.0295035 52.6072766,24.6806877 C51.7128434,23.3300504 50.2096479,22.6533657 48.0995157,22.6533657 Z M95.5459125,22.2856973 C93.363678,22.2856973 91.7500475,22.8713074 90.6968067,24.0507243 C89.6399152,25.2228552 89.0256769,26.7219441 88.8486156,28.5498127 L100.764657,28.5498127 C100.90521,26.6162975 100.555651,25.0935292 99.7150666,23.9687571 C98.8690058,22.8476279 97.4798962,22.2856973 95.5459125,22.2856973 Z" id="Combined-Shape" fill="#142463"></path>
                    <path d="M11.2881124,12.2070106 C3.54761423,18.5184849 6.71463799,26.9082829 7.04685605,36.6714869 C7.43657338,47.832687 7.70307797,51.6423402 0,57.0066379 C2.50167497,55.2643796 7.72680783,58.7889691 10.2987597,57.0066379 C18.4390147,51.3399723 17.0827619,48.01939 17.3456157,36.6714869 C17.5756129,26.7279551 14.2753368,14.6742233 23.6176006,10.8226757 C21.3486608,12.6724022 13.6264164,10.2971749 11.2881124,12.2070106" id="Fill-1" fill="#5CBB1A"></path>
                    <path d="M25.8323267,14.0675749 C19.4416926,16.975589 21.093656,29.7351494 21.4103584,39.2861494 C21.7681317,50.2096446 22.0154699,53.8681139 14.8955989,59.115836 C17.2037842,57.4163828 22.0419378,60.8672018 24.4158366,59.115836 C31.9363772,53.5702997 30.6850833,50.3936155 30.9269454,39.2861494 C31.1432522,29.5584646 28.4143182,18.7233118 37.7501931,13.7688501 C35.6491877,15.5857896 28.3969771,12.90273 25.8323267,14.0675749" id="Fill-3" fill="#FFBD28"></path>
                    <path d="M179.949219,60 C180.855469,60 181.556641,59.78125 182.052734,59.34375 C182.548828,58.90625 182.796875,58.3046875 182.796875,57.5390625 C182.796875,57.0390625 182.663086,56.6083984 182.395508,56.2470703 C182.12793,55.8857422 181.763672,55.640625 181.302734,55.5117188 C181.693359,55.34375 182.001953,55.1064453 182.228516,54.7998047 C182.455078,54.4931641 182.568359,54.140625 182.568359,53.7421875 C182.568359,52.9921875 182.334961,52.4257812 181.868164,52.0429688 C181.401367,51.6601562 180.705078,51.46875 179.779297,51.46875 L179.779297,51.46875 L176.990234,51.46875 L176.990234,60 L179.949219,60 Z M179.814453,55.1074219 L178.115234,55.1074219 L178.115234,52.3945312 L179.779297,52.3945312 C180.337891,52.3945312 180.753906,52.5009766 181.027344,52.7138672 C181.300781,52.9267578 181.4375,53.2675781 181.4375,53.7363281 C181.4375,54.1582031 181.290039,54.4921875 180.995117,54.7382812 C180.700195,54.984375 180.306641,55.1074219 179.814453,55.1074219 L179.814453,55.1074219 Z M179.972656,59.0800781 L178.115234,59.0800781 L178.115234,56.0097656 L179.990234,56.0097656 C181.107422,56.0097656 181.666016,56.5234375 181.666016,57.5507812 C181.666016,58.0273438 181.514648,58.4013672 181.211914,58.6728516 C180.90918,58.9443359 180.496094,59.0800781 179.972656,59.0800781 L179.972656,59.0800781 Z M186.585938,60 L186.585938,56.5488281 L188.589844,56.5488281 L190.441406,60 L191.648438,60 L191.648438,59.9296875 L189.644531,56.3085938 C190.15625,56.1132812 190.555664,55.8183594 190.842773,55.4238281 C191.129883,55.0292969 191.273438,54.5664062 191.273438,54.0351562 C191.273438,53.1992188 191.014648,52.5625 190.49707,52.125 C189.979492,51.6875 189.240234,51.46875 188.279297,51.46875 L188.279297,51.46875 L185.455078,51.46875 L185.455078,60 L186.585938,60 Z M188.314453,55.6289062 L186.585938,55.6289062 L186.585938,52.3945312 L188.308594,52.3945312 C188.902344,52.3984375 189.356445,52.5410156 189.670898,52.8222656 C189.985352,53.1035156 190.142578,53.5078125 190.142578,54.0351562 C190.142578,54.5195312 189.977539,54.90625 189.647461,55.1953125 C189.317383,55.484375 188.873047,55.6289062 188.314453,55.6289062 L188.314453,55.6289062 Z M194.183594,60 L194.986328,57.7734375 L198.560547,57.7734375 L199.375,60 L200.529297,60 L197.265625,51.46875 L196.28125,51.46875 L193.023438,60 L194.183594,60 Z M198.226562,56.8476562 L195.326172,56.8476562 L196.773438,52.8574219 L198.226562,56.8476562 Z M205.384766,60.1171875 C206.287109,60.1171875 207.007812,59.9091797 207.546875,59.4931641 C208.085938,59.0771484 208.355469,58.5234375 208.355469,57.8320312 C208.355469,57.3984375 208.258789,57.0214844 208.06543,56.7011719 C207.87207,56.3808594 207.575195,56.1005859 207.174805,55.8603516 C206.774414,55.6201172 206.219727,55.4003906 205.510742,55.2011719 C204.801758,55.0019531 204.299805,54.7822266 204.004883,54.5419922 C203.709961,54.3017578 203.5625,54.0078125 203.5625,53.6601562 C203.5625,53.2265625 203.717773,52.8876953 204.02832,52.6435547 C204.338867,52.3994141 204.771484,52.2773438 205.326172,52.2773438 C205.923828,52.2773438 206.386719,52.4248047 206.714844,52.7197266 C207.042969,53.0146484 207.207031,53.4199219 207.207031,53.9355469 L207.207031,53.9355469 L208.337891,53.9355469 C208.337891,53.4628906 208.211914,53.0273438 207.959961,52.6289062 C207.708008,52.2304688 207.352539,51.9179688 206.893555,51.6914062 C206.43457,51.4648438 205.912109,51.3515625 205.326172,51.3515625 C204.466797,51.3515625 203.768555,51.5712891 203.231445,52.0107422 C202.694336,52.4501953 202.425781,53.0058594 202.425781,53.6777344 C202.425781,54.2714844 202.645508,54.7705078 203.084961,55.1748047 C203.524414,55.5791016 204.226562,55.9199219 205.191406,56.1972656 C205.960938,56.4199219 206.492188,56.6455078 206.785156,56.8740234 C207.078125,57.1025391 207.224609,57.4257812 207.224609,57.84375 C207.224609,58.2617188 207.066406,58.5917969 206.75,58.8339844 C206.433594,59.0761719 205.978516,59.1972656 205.384766,59.1972656 C204.748047,59.1972656 204.239258,59.0478516 203.858398,58.7490234 C203.477539,58.4501953 203.287109,58.0429688 203.287109,57.5273438 L203.287109,57.5273438 L202.15625,57.5273438 C202.15625,58.0234375 202.293945,58.4667969 202.569336,58.8574219 C202.844727,59.2480469 203.236328,59.5556641 203.744141,59.7802734 C204.251953,60.0048828 204.798828,60.1171875 205.384766,60.1171875 Z M212.003906,60 L212.003906,51.46875 L210.878906,51.46875 L210.878906,60 L212.003906,60 Z M220.234375,60 L220.234375,59.0800781 L216.191406,59.0800781 L216.191406,51.46875 L215.060547,51.46875 L215.060547,60 L220.234375,60 Z" id="BRASIL" fill="#142463" fill-rule="nonzero" opacity="0.900000036"></path>
                    <path d="M84.1972656,9 L84.1972656,0.46875 L83.0722656,0.46875 L83.0722656,9 L84.1972656,9 Z M88.3847656,9 L88.3847656,2.42578125 L92.6796875,9 L93.8105469,9 L93.8105469,0.46875 L92.6914062,0.46875 L92.6914062,7.07226562 L88.3847656,0.46875 L87.2539062,0.46875 L87.2539062,9 L88.3847656,9 Z M99.515625,9.1171875 C100.417969,9.1171875 101.138672,8.90917969 101.677734,8.49316406 C102.216797,8.07714844 102.486328,7.5234375 102.486328,6.83203125 C102.486328,6.3984375 102.389648,6.02148438 102.196289,5.70117188 C102.00293,5.38085938 101.706055,5.10058594 101.305664,4.86035156 C100.905273,4.62011719 100.350586,4.40039062 99.6416016,4.20117188 C98.9326172,4.00195312 98.4306641,3.78222656 98.1357422,3.54199219 C97.8408203,3.30175781 97.6933594,3.0078125 97.6933594,2.66015625 C97.6933594,2.2265625 97.8486328,1.88769531 98.1591797,1.64355469 C98.4697266,1.39941406 98.9023438,1.27734375 99.4570312,1.27734375 C100.054688,1.27734375 100.517578,1.42480469 100.845703,1.71972656 C101.173828,2.01464844 101.337891,2.41992188 101.337891,2.93554688 L101.337891,2.93554688 L102.46875,2.93554688 C102.46875,2.46289062 102.342773,2.02734375 102.09082,1.62890625 C101.838867,1.23046875 101.483398,0.91796875 101.024414,0.69140625 C100.56543,0.46484375 100.042969,0.3515625 99.4570312,0.3515625 C98.5976562,0.3515625 97.8994141,0.571289062 97.3623047,1.01074219 C96.8251953,1.45019531 96.5566406,2.00585938 96.5566406,2.67773438 C96.5566406,3.27148438 96.7763672,3.77050781 97.2158203,4.17480469 C97.6552734,4.57910156 98.3574219,4.91992188 99.3222656,5.19726562 C100.091797,5.41992188 100.623047,5.64550781 100.916016,5.87402344 C101.208984,6.10253906 101.355469,6.42578125 101.355469,6.84375 C101.355469,7.26171875 101.197266,7.59179688 100.880859,7.83398438 C100.564453,8.07617188 100.109375,8.19726562 99.515625,8.19726562 C98.8789062,8.19726562 98.3701172,8.04785156 97.9892578,7.74902344 C97.6083984,7.45019531 97.4179688,7.04296875 97.4179688,6.52734375 L97.4179688,6.52734375 L96.2871094,6.52734375 C96.2871094,7.0234375 96.4248047,7.46679688 96.7001953,7.85742188 C96.9755859,8.24804688 97.3671875,8.55566406 97.875,8.78027344 C98.3828125,9.00488281 98.9296875,9.1171875 99.515625,9.1171875 Z M108.080078,9 L108.080078,1.39453125 L110.822266,1.39453125 L110.822266,0.46875 L104.224609,0.46875 L104.224609,1.39453125 L106.960938,1.39453125 L106.960938,9 L108.080078,9 Z M114.294922,9 L114.294922,0.46875 L113.169922,0.46875 L113.169922,9 L114.294922,9 Z M120.333984,9 L120.333984,1.39453125 L123.076172,1.39453125 L123.076172,0.46875 L116.478516,0.46875 L116.478516,1.39453125 L119.214844,1.39453125 L119.214844,9 L120.333984,9 Z M128.248047,9.1171875 L128.546875,9.10546875 C129.40625,9.04296875 130.086914,8.75585938 130.588867,8.24414062 C131.09082,7.73242188 131.34375,7.07421875 131.347656,6.26953125 L131.347656,6.26953125 L131.347656,0.46875 L130.216797,0.46875 L130.216797,6.25195312 C130.216797,6.86914062 130.047852,7.34765625 129.709961,7.6875 C129.37207,8.02734375 128.884766,8.19726562 128.248047,8.19726562 C127.619141,8.19726562 127.134766,8.02636719 126.794922,7.68457031 C126.455078,7.34277344 126.285156,6.86328125 126.285156,6.24609375 L126.285156,6.24609375 L126.285156,0.46875 L125.171875,0.46875 L125.171875,6.28125 C125.179688,7.1640625 125.460938,7.85742188 126.015625,8.36132812 C126.570312,8.86523438 127.314453,9.1171875 128.248047,9.1171875 L128.248047,9.1171875 Z M137.275391,9 L137.275391,1.39453125 L140.017578,1.39453125 L140.017578,0.46875 L133.419922,0.46875 L133.419922,1.39453125 L136.15625,1.39453125 L136.15625,9 L137.275391,9 Z M145.259766,9.1171875 C145.947266,9.1171875 146.548828,8.953125 147.064453,8.625 C147.580078,8.296875 147.978516,7.82128906 148.259766,7.19824219 C148.541016,6.57519531 148.681641,5.84570312 148.681641,5.00976562 L148.681641,5.00976562 L148.681641,4.47070312 C148.681641,3.63867188 148.541016,2.90917969 148.259766,2.28222656 C147.978516,1.65527344 147.577148,1.17675781 147.055664,0.846679688 C146.53418,0.516601562 145.931641,0.3515625 145.248047,0.3515625 C144.576172,0.3515625 143.979492,0.518554688 143.458008,0.852539062 C142.936523,1.18652344 142.533203,1.66796875 142.248047,2.296875 C141.962891,2.92578125 141.820312,3.65039062 141.820312,4.47070312 L141.820312,4.47070312 L141.820312,5.0859375 C141.828125,5.890625 141.975586,6.59863281 142.262695,7.20996094 C142.549805,7.82128906 142.953125,8.29199219 143.472656,8.62207031 C143.992188,8.95214844 144.587891,9.1171875 145.259766,9.1171875 Z M145.259766,8.16210938 C144.537109,8.16210938 143.969727,7.88183594 143.557617,7.32128906 C143.145508,6.76074219 142.939453,5.99023438 142.939453,5.00976562 L142.939453,5.00976562 L142.939453,4.3828125 C142.951172,3.421875 143.161133,2.67089844 143.569336,2.12988281 C143.977539,1.58886719 144.537109,1.31835938 145.248047,1.31835938 C145.978516,1.31835938 146.546875,1.58886719 146.953125,2.12988281 C147.359375,2.67089844 147.5625,3.44726562 147.5625,4.45898438 L147.5625,4.45898438 L147.5625,5.09179688 C147.550781,6.08007812 147.345703,6.83886719 146.947266,7.36816406 C146.548828,7.89746094 145.986328,8.16210938 145.259766,8.16210938 Z" id="INSTITUTO" fill="#142463" fill-rule="nonzero" opacity="0.900000036"></path>
                </g>
            </g>
        </g>
    </g>
</svg>